<?xml version="1.0"?>
<svg xmlns:rdf="http://www.w3.org/1999/02/22-rdf-syntax-ns#" xmlns="http://www.w3.org/2000/svg" xmlns:cc="http://creativecommons.org/ns#" xmlns:xlink="http://www.w3.org/1999/xlink" xmlns:dc="http://purl.org/dc/elements/1.1/" xmlns:svg="http://www.w3.org/2000/svg" id="svg11854" viewBox="0 0 71.166 183.4" version="1.1">
  <defs id="defs11856">
    <filter id="filter8000" height="1.5391" width="1.4461" y="-.26955" x="-.22307" color-interpolation-filters="sRGB">
      <feGaussianBlur id="feGaussianBlur8002" stdDeviation="2.5850611"/>
    </filter>
    <linearGradient id="linearGradient11934" y2="3.9932" gradientUnits="userSpaceOnUse" x2="-269.88" gradientTransform="matrix(.39434 0 0 .39434 498.59 473.4)" y1="3.9932" x1="-300.62">
      <stop id="stop8016" stop-color="#333" stop-opacity=".52744" offset="0"/>
      <stop id="stop8032" stop-color="#7f7f7f" stop-opacity=".76078" offset=".5"/>
      <stop id="stop8018" stop-color="#ccc" offset="1"/>
    </linearGradient>
    <linearGradient id="linearGradient11937" y2="17.784" gradientUnits="userSpaceOnUse" x2="-266.04" gradientTransform="matrix(.39577 0 0 .39391 499.19 473.31)" y1="17.784" x1="-439.63">
      <stop id="stop8036" stop-color="#6c6a6c" stop-opacity=".48515" offset="0"/>
      <stop id="stop8038" stop-color="#bab8ba" stop-opacity=".71617" offset=".5"/>
      <stop id="stop8040" stop-color="#5b575b" offset="1"/>
    </linearGradient>
    <radialGradient id="radialGradient11939" gradientUnits="userSpaceOnUse" cy="-244.73" cx="-570" gradientTransform="matrix(1 0 0 .43353 0 -138.63)" r="40.857">
      <stop id="stop8006" stop-color="#4c494c" offset="0"/>
      <stop id="stop8008" stop-color="#fcf5f5" offset="1"/>
    </radialGradient>
  </defs>
  <g id="layer1" transform="translate(-327.27 -383.52)">
    <path id="path8022" d="m334.88 393.53c13.299 3.8461 26.815 7.5121 51.986 1.5107-11.139 58.43-4.1454 115.65 0.37946 165.05 2.8632 3.7922-30.507 13.07-51.986 0.37768 6.7239-55.645 4.9943-111.29-0.37946-166.93z" fill="url(#linearGradient11937)"/>
    <path id="path8012" d="m387.06 388.99c3.7944-0.15301 7.6227-0.37383 9.4523 3.4028-7.9621 56.21-2.9189 112.42-1.5124 168.63h-7.9399c-4.4-56.855-12.834-113.26 0-172.03z" fill="url(#linearGradient11934)"/>
    <path id="path7476" opacity=".84818" style="color:#000000" d="m-557.12-249.07c2.8966 5.8848-0.51967 12.599-7.6304 14.996-7.1108 2.3972-15.223-0.43007-18.12-6.3148-2.8966-5.8848 0.51967-12.599 7.6304-14.996 6.9423-2.3404 14.877 0.29566 17.936 5.959" transform="matrix(1.7694 0 0 .55444 1371.4 529.02)" filter="url(#filter8000)" fill="url(#radialGradient11939)"/>
    <path id="path7394-4" opacity=".83498" d="m384.81 388.86c2.5853 0.75521 7.9763-1.1168 7.3728 5.1042-8.0089 53.925-6.0356 105.47-1.3233 159.93 1.2932 5.7208-0.84045 6.4902-3.4028 6.4276m-3.0457-171.56c3.9014 0.89957 11.678-0.91725 12.612 4.6253-10.804 55.386-1.9777 108.59-1.8481 163.04 2.1071 5.832-3.2175 4.6892-7.3925 4.6253m-1.289-172.32c2.3945 0.88241 8.261-0.76608 8.8337 4.6708-9.1756 54.33-1.6573 109.32-1.4016 162.74 1.2932 5.7208-3.7125 4.4661-6.2749 4.4034m1.0593-171.5c2.2297 0.65866 2.0981 5.4632 1.2328 11.036-11.148 53.76-4.3996 102.93-0.68362 155.02 0.77942 5.5449-1.1902 4.4583-2.7345 4.3976m4.2789-170.27c2.535 0.81217 3.7607 0.68199 2.6846 6.9433-9.1118 52.871-5.0122 104.47-1.1343 159.93 1.2932 5.7208-1.9747 4.5998-4.5371 4.5371m-41.77-164.41c-2.2651-10.975 26.945-9.5506 22.762 0.48026m-27.457-1.0979c-3.661-11.949 43.548-10.398 36.788 0.52287m-36.018 0.003c-3.2206-12.33 38.31-10.73 32.363 0.53956m-27.414 0.18514c-1.8275-9.2301 21.739-8.032 18.364 0.4039m-25.385-1.9475c-4.0746-12.279 48.469-10.685 40.945 0.5373m-44.631-1.62c-4.8255-12.238 57.401-10.649 48.49 0.53551m-49.874-1.0591c-5.1881-12.219 61.714-10.633 52.134 0.5347m-52.09-0.49131c13.538 5.6888 41.615 4.7824 52.314 0.5347-11.698 57.308-7.8307 106.99 0 166.74-9.6989 5.5991-36.471 9.2965-51.781-0.53469 6.0964-55.58 6.2018-111.16-0.5334-166.74z" stroke="#303030" stroke-width=".39434px" fill="none"/>
    <g id="flowRoot8042" fill="#2d2d2d" transform="matrix(.0088098 -.69898 .61651 .0099883 183.15 -37.232)">
      <path id="path8673" d="m-824.13 271.74 25.128 30.888v-21.96c-0.00004-2.544-0.45604-4.296-1.368-5.256-0.91204-1.008-2.688-1.632-5.328-1.872v-1.8h15.48v1.8c-2.352 0.38404-3.888 0.93604-4.608 1.656-0.67205 0.67204-1.008 2.04-1.008 4.104v42.408h-2.016l-32.184-39.168v28.944c-0.00001 2.544 0.43199 4.296 1.296 5.256 0.91199 0.912 2.76 1.536 5.544 1.872v1.8h-16.344v-1.8c2.64-0.336 4.344-0.864 5.112-1.584 0.81599-0.72 1.224-2.112 1.224-4.176v-34.128c-1.728-2.064-3-3.432-3.816-4.104-0.816-0.71996-1.584-1.08-2.304-1.08v-1.8h15.192"/>
      <path id="path8675" d="m-763.53 318.18c5.232 0 9.216-1.056 11.952-3.168s5.088-5.304 7.056-9.576h2.016l-2.88 14.976h-42.12v-1.8c2.688-0.288 4.416-0.744 5.184-1.368 0.76799-0.624 1.152-1.872 1.152-3.744v-34.848c-0.00001-1.824-0.43201-3.096-1.296-3.816-0.86401-0.71996-2.544-1.152-5.04-1.296v-1.8h41.544v14.472h-1.8c-0.91204-4.8-2.52-7.992-4.824-9.576-2.304-1.632-6.384-2.448-12.24-2.448-1.872 0.00004-3.12 0.24004-3.744 0.72-0.62402 0.43204-0.93602 1.32-0.936 2.664v16.704h0.288c3.792 0.00002 6.504-0.76798 8.136-2.304 1.632-1.584 2.712-4.392 3.24-8.424h1.872v24.336h-1.872c-0.43203-4.176-1.512-7.08-3.24-8.712-1.68-1.632-4.488-2.448-8.424-2.448v17.424c-0.00002 1.536 0.40798 2.592 1.224 3.168 0.86398 0.576 2.448 0.864 4.752 0.864"/>
      <path id="path8677" d="m-671.34 271.74v1.8c-2.4001 0.24004-4.0561 1.776-4.968 4.608l-14.4 43.344h-1.944l-12.312-34.344-13.392 34.344h-2.016l-15.264-43.344c-0.62401-1.776-1.224-2.928-1.8-3.456-0.576-0.52796-1.632-0.91196-3.168-1.152v-1.8h21.168v1.8c-1.872 0.14404-3.12 0.43204-3.744 0.864-0.57602 0.38404-0.86402 1.104-0.864 2.16-0.00002 0.52804 0.16798 1.32 0.504 2.376l8.64 26.208 8.496-22.176-2.52-6.912c-0.72003-1.536-2.448-2.376-5.184-2.52v-1.8h22.464v1.8c-0.28805 0.048-0.60005 0.072-0.936 0.072-1.584 0.096-2.688 0.33604-3.312 0.72-0.62405 0.38404-0.93605 1.008-0.936 1.872-0.00005 0.52804 0.33595 1.872 1.008 4.032l7.776 24.192 8.064-24.696c0.33594-0.95996 0.50394-1.968 0.504-3.024-0.00006-1.104-0.36006-1.872-1.08-2.304-0.67206-0.47996-1.9681-0.76796-3.888-0.864v-1.8h13.104"/>
      <path id="path8679" d="m-654.69 270.66c2.304 0.00005 4.704 0.40805 7.2 1.224 2.496 0.76805 3.912 1.152 4.248 1.152 0.62397 0.00005 1.104-0.16795 1.44-0.504 0.33597-0.38395 0.62397-1.032 0.864-1.944h2.16v15.624h-2.016c-1.392-4.56-3.336-7.92-5.832-10.08-2.448-2.16-5.136-3.24-8.064-3.24-2.448 0.00005-4.392 0.64804-5.832 1.944-1.392 1.296-2.088 3.048-2.088 5.256-0.00001 1.728 0.50399 3.168 1.512 4.32 1.056 1.104 3.024 2.376 5.904 3.816l10.584 5.256c2.304 1.152 4.2 2.952 5.688 5.4s2.232 5.016 2.232 7.704c-0.00004 4.512-1.656 8.184-4.968 11.016-3.264 2.784-7.56 4.176-12.888 4.176-2.592 0-5.184-0.408-7.776-1.224-2.544-0.816-4.056-1.224-4.536-1.224-1.056 0-1.776 0.816-2.16 2.448h-2.088v-17.784h2.088c2.496 10.272 7.392 15.408 14.688 15.408 2.784 0 4.992-0.744 6.624-2.232s2.448-3.48 2.448-5.976c-0.00003-1.872-0.55203-3.408-1.656-4.608s-3.24-2.544-6.408-4.032l-4.824-2.304c-4.272-2.064-7.392-4.272-9.36-6.624-1.968-2.4-2.952-5.184-2.952-8.352 0-4.56 1.392-8.136 4.176-10.728 2.832-2.592 6.696-3.888 11.592-3.888"/>
    </g>
  </g>
  <metadata>
    <rdf:RDF>
      <cc:Work>
        <dc:format>image/svg+xml</dc:format>
        <dc:type rdf:resource="http://purl.org/dc/dcmitype/StillImage"/>
        <cc:license rdf:resource="http://creativecommons.org/licenses/publicdomain/"/>
        <dc:publisher>
          <cc:Agent rdf:about="http://openclipart.org/">
            <dc:title>Openclipart</dc:title>
          </cc:Agent>
        </dc:publisher>
        <dc:title>Rolled up newspaper</dc:title>
        <dc:date>2011-07-15T11:56:56</dc:date>
        <dc:description>Simple rolled-up newspaper</dc:description>
        <dc:source>http://openclipart.org/detail/149773/rolled-up-newspaper-by-moini</dc:source>
        <dc:creator>
          <cc:Agent>
            <dc:title>Moini</dc:title>
          </cc:Agent>
        </dc:creator>
        <dc:subject>
          <rdf:Bag>
            <rdf:li>clip art</rdf:li>
            <rdf:li>clipart</rdf:li>
            <rdf:li>journal</rdf:li>
            <rdf:li>news</rdf:li>
            <rdf:li>newspaper</rdf:li>
            <rdf:li>paper</rdf:li>
            <rdf:li>periodical</rdf:li>
          </rdf:Bag>
        </dc:subject>
      </cc:Work>
      <cc:License rdf:about="http://creativecommons.org/licenses/publicdomain/">
        <cc:permits rdf:resource="http://creativecommons.org/ns#Reproduction"/>
        <cc:permits rdf:resource="http://creativecommons.org/ns#Distribution"/>
        <cc:permits rdf:resource="http://creativecommons.org/ns#DerivativeWorks"/>
      </cc:License>
    </rdf:RDF>
  </metadata>
</svg>
